<svg width="166" height="164" viewBox="0 0 166 164" fill="none" xmlns="http://www.w3.org/2000/svg">
<path d="M140.689 72.964C136.338 41.5385 107.209 19.6616 75.9044 24.1337C44.479 28.4849 22.602 57.6139 27.0741 88.9184C31.4253 120.344 60.4334 142.1 91.8589 137.749C123.163 133.277 145.04 104.269 140.689 72.964Z" stroke="#005CB9" stroke-width="1.5"/>
<path d="M9.27576 83.1253L20.1734 81.3174L20.2662 79.8649L12.9772 77.9306C12.6185 77.8775 12.1579 77.6871 11.7992 77.634C11.321 77.5632 10.8427 77.4924 10.3645 77.4216C10.98 77.3906 11.4759 77.3418 11.8346 77.3949C12.211 77.3284 12.5697 77.3815 12.9461 77.3151L20.319 76.2072L20.4118 74.7547L9.74389 71.7093L9.66875 73.0422L17.0774 74.9942C17.4361 75.0473 17.8966 75.2377 18.2553 75.2908C18.614 75.3439 19.0923 75.4147 19.451 75.4678C18.955 75.5165 18.4591 75.5653 18.1004 75.5122C17.724 75.5787 17.3653 75.5256 16.9889 75.592L9.49644 76.6822L9.40362 78.1347L16.8122 80.0867C17.1709 80.1398 17.6315 80.3302 17.9902 80.3833C18.3489 80.4364 18.8271 80.5072 19.1858 80.5603C18.6899 80.609 18.1939 80.6578 17.8352 80.6047C17.4588 80.6712 17.0824 80.7376 16.7237 80.6845L9.23131 81.7747L9.27576 83.1253ZM87.1798 148.663C87.2373 147.45 86.8829 146.542 86.3559 145.975C85.8466 145.289 85.0273 145.046 83.9335 145.006C82.9593 144.984 82.0693 145.219 81.5025 145.746C80.9358 146.273 80.5904 146.955 80.6703 148.066C80.6836 148.801 80.8343 149.435 81.2594 149.864C81.6669 150.413 82.2293 150.741 83.1504 151.121L84.8908 151.746C85.2318 151.918 85.4532 152.073 85.6569 152.348C85.7411 152.605 85.8075 152.981 85.8563 153.477C85.8209 153.716 85.7855 153.955 85.7678 154.075C85.7324 154.314 85.5951 154.416 85.4402 154.637C85.3029 154.739 85.148 154.96 84.8911 155.045C84.6343 155.129 84.3775 155.213 84.0188 155.16C83.4033 155.191 82.9427 155.001 82.6371 154.589C82.3315 154.177 82.1455 153.783 82.234 153.185L81.003 153.247C81.1005 154.239 81.353 155.01 81.8977 155.457C82.4247 156.024 83.1244 156.249 84.0986 156.271C84.5946 156.223 84.971 156.156 85.3474 156.09C85.7414 155.904 85.9983 155.819 86.2905 155.496C86.565 155.292 86.7377 154.951 86.9103 154.61C87.083 154.269 87.1361 153.911 87.0873 153.415C87.0386 152.919 87.074 152.68 87.0075 152.303C86.9234 152.047 86.8392 151.79 86.6355 151.515C86.4317 151.241 86.3299 151.103 86.1084 150.948C85.887 150.793 85.6656 150.638 85.4265 150.603L83.8057 149.997C83.5842 149.842 83.3451 149.806 83.1237 149.651C82.9022 149.496 82.6631 149.461 82.5613 149.324C82.4594 149.186 82.2557 148.912 82.1538 148.775C82.0696 148.518 81.9855 148.261 82.0386 147.902C82.0075 147.287 82.1979 146.826 82.6097 146.521C83.0214 146.215 83.5351 146.047 84.1329 146.135C84.5093 146.069 84.8503 146.241 85.0894 146.277C85.3109 146.432 85.5323 146.587 85.7537 146.742C85.9574 147.016 86.0416 147.273 86.1258 147.53C86.1922 147.906 86.2764 148.163 86.2056 148.641L87.1798 148.663ZM159.002 78.6541L148.233 78.7704L148.291 84.1551L149.385 84.1948L149.407 79.9216L153.441 79.9079L153.472 83.8224L154.566 83.8622L154.534 79.9476L158.073 79.9826L158.069 84.1363L159.061 84.0388L159.002 78.6541ZM80.0038 6.47824L80.1201 17.2477L81.3335 17.3051L81.2572 8.74093C81.2926 8.5018 81.2262 8.12541 81.2616 7.88628C81.1951 7.50989 81.2305 7.27076 81.2659 7.03163C81.3324 7.40802 81.4165 7.66485 81.3811 7.90398C81.3457 8.14311 81.5495 8.41764 81.6336 8.67446L84.6325 17.3047L86.5809 17.3488L86.4646 6.57938L85.2335 6.64151L85.2744 15.4448C85.239 15.6839 85.3408 15.8212 85.3054 16.0603C85.27 16.2995 85.3719 16.4367 85.3365 16.6759C85.2523 16.419 85.1682 16.1622 85.1859 16.0426C85.084 15.9054 85.1194 15.6662 85.0175 15.529L81.9168 6.76144L80.0038 6.47824Z" fill="#005CB9"/>
</svg>
