<svg width="100%" height="100%" viewBox="0 0 376 376" fill="none" xmlns="http://www.w3.org/2000/svg">
<path d="M150.1 15.1L167.2 12.6L166.9 10.7L149.8 13.2L150.1 15.1ZM136 14.5C136.7 15 137.2 15.7 137.6 16.8L131.5 18.6C131.3 17.5 131.3 16.6 131.6 15.8C131.9 15 132.6 14.5 133.6 14.2C134.5 14 135.4 14.1 136 14.5ZM139.3 21.5C139.2 22.1 138.9 22.5 138.5 22.9C138.1 23.3 137.5 23.6 136.6 23.8C136 24 135.5 24 135 23.9C134.5 23.8 134.1 23.6 133.7 23.4C133.3 23.1 133 22.8 132.7 22.3C132.4 21.9 132.2 21.4 132 20.8L131.9 20.4L140.1 18L139.7 16.6C139.2 14.7 138.3 13.4 137.2 12.6C136.1 11.8 134.6 11.7 132.9 12.2C131.2 12.7 130.1 13.6 129.5 14.8C128.9 16.1 128.9 17.6 129.5 19.5L130 21.2C130.5 23 131.4 24.3 132.7 25.1C134 25.9 135.5 26 137.2 25.5C138.3 25.2 139.2 24.7 139.8 24.2C140.4 23.7 140.8 22.9 141.1 22L139.3 21.5ZM115.3 18.7L113.3 19.5L118.2 32.1L120.1 31.4L122.8 19.7L126.4 29L128.4 28.2L123.5 15.6L121.6 16.4L118.8 27.9L115.3 18.7ZM100.8 25.4L98.9 26.3L104.8 38.4L106.7 37.5L104.1 32.2L109.8 29.4L112.4 34.7L114.3 33.8L108.4 21.7L106.5 22.6L109 27.7L103.3 30.5L100.8 25.4ZM93.2 32.6C94 32.9 94.7 33.5 95.3 34.4L89.9 37.7C89.4 36.7 89.2 35.8 89.3 35C89.4 34.2 89.9 33.5 90.8 33C91.6 32.4 92.5 32.3 93.2 32.6ZM98.1 38.5C98.1 39.1 98 39.6 97.7 40.1C97.4 40.6 96.9 41 96.1 41.5C95.6 41.8 95.1 42 94.6 42C94.1 42 93.7 42 93.2 41.8C92.7 41.6 92.4 41.4 92 41C91.6 40.6 91.3 40.2 91 39.7L90.8 39.4L98.1 35L97.4 33.8C96.4 32.1 95.2 31.1 93.9 30.6C92.6 30.2 91.2 30.4 89.6 31.3C88.1 32.2 87.2 33.4 87 34.7C86.8 36.1 87.2 37.6 88.2 39.2L89.1 40.7C90.1 42.3 91.3 43.3 92.7 43.7C94.1 44.1 95.6 43.8 97.2 42.9C98.2 42.3 99 41.6 99.4 41C99.9 40.3 100.1 39.5 100.1 38.6L98.1 38.5ZM69 45.9L77.2 48L76.7 57L78.9 55.3L79.3 47.4L83 52.4L84.7 51.1L81 46.1L88.7 48.1L90.9 46.4L82.1 44.2L82.6 35.8L80.5 37.3L80.2 45L76.6 40.2L74.9 41.5L78.5 46.3L71.1 44.3L69 45.9ZM68.9 61.2C68.4 61.3 68 61.3 67.5 61.2C67 61.1 66.6 60.9 66.2 60.6C65.8 60.3 65.4 59.9 65 59.5L63.8 58.2C63 57.2 62.5 56.3 62.5 55.3C62.5 54.4 62.9 53.5 63.7 52.8C64.5 52.1 65.4 51.8 66.3 51.9C67.2 52 68.1 52.6 69 53.6L70.2 54.9C70.6 55.3 70.9 55.8 71.1 56.3C71.3 56.8 71.5 57.2 71.5 57.7C71.5 58.2 71.5 58.6 71.3 59.1C71.1 59.5 70.8 60 70.4 60.3C69.8 60.8 69.3 61 68.9 61.2ZM70.6 52.2C69.3 50.7 68 49.9 66.5 49.8C65.1 49.7 63.7 50.2 62.3 51.4C61 52.6 60.3 53.9 60.2 55.3C60.2 56.7 60.8 58.2 62 59.6L63.2 60.9C64.4 62.3 65.8 63.1 67.2 63.3C68.7 63.5 70.1 63 71.4 61.8C72.1 61.2 72.7 60.5 73 59.8C73.3 59.1 73.5 58.4 73.5 57.7C73.5 57 73.3 56.3 73 55.6C72.7 54.9 72.2 54.2 71.6 53.5L70.6 52.2ZM48.9 64.8L52.8 68.6C53.5 69.3 54.1 69.8 54.6 70.4C55.1 70.9 55.5 71.5 55.8 72.1C56.1 72.6 56.2 73.1 56.1 73.6C56 74 55.9 74.4 55.7 74.8L57.1 76.2C57.6 75.6 58 74.8 58.2 74.1C58.4 73.3 58.3 72.5 57.9 71.6C57.4 70.5 56.4 69.2 54.8 67.7L51.7 64.8L54.8 61.6L63.1 69.6L64.6 68L54.9 58.6L48.9 64.8ZM49.3 81.9C48.9 82.1 48.4 82.2 47.9 82.2C47.4 82.2 47 82.1 46.5 81.8C46 81.6 45.6 81.3 45.1 80.9L43.7 79.8C42.7 79 42.1 78.1 41.9 77.2C41.7 76.3 42 75.4 42.7 74.5C43.4 73.6 44.2 73.2 45.2 73.2C46.1 73.2 47.1 73.6 48.1 74.4L49.5 75.5C49.9 75.9 50.3 76.3 50.6 76.7C50.9 77.1 51.1 77.6 51.2 78C51.3 78.5 51.3 78.9 51.2 79.4C51.1 79.9 50.9 80.3 50.5 80.8C50.2 81.4 49.7 81.7 49.3 81.9ZM49.5 72.8C48 71.6 46.5 71 45.1 71.1C43.7 71.2 42.4 71.9 41.3 73.3C40.2 74.7 39.7 76.1 39.9 77.5C40.1 78.9 40.9 80.2 42.4 81.5L43.8 82.6C45.3 83.8 46.7 84.3 48.2 84.3C49.7 84.2 51 83.5 52.1 82.1C52.7 81.3 53.1 80.6 53.3 79.9C53.5 79.2 53.5 78.4 53.4 77.7C53.3 77 53 76.3 52.6 75.7C52.2 75.1 51.6 74.5 50.9 73.9L49.5 72.8ZM29.1 90.3L40.2 97.9L41.4 96.1L31.9 89.6L35.5 84.3L45 90.8L46.2 89L35.1 81.4L29.1 90.3ZM23.9 104.7C24.7 104.5 25.6 104.7 26.7 105.2L23.8 110.8C22.8 110.2 22.2 109.5 21.8 108.8C21.5 108.1 21.5 107.2 22 106.3C22.4 105.4 23 104.9 23.9 104.7ZM31.1 107.2C31.4 107.7 31.6 108.2 31.6 108.8C31.6 109.3 31.4 110 31 110.8C30.7 111.3 30.4 111.7 30 112C29.6 112.3 29.2 112.5 28.7 112.5C28.2 112.6 27.8 112.6 27.2 112.5C26.7 112.4 26.2 112.2 25.7 112L25.4 111.8L29.3 104.2L28 103.5C26.3 102.6 24.7 102.3 23.4 102.6C22.1 102.9 21 103.8 20.1 105.4C19.3 107 19.1 108.4 19.7 109.7C20.2 111 21.3 112.1 23 112.9L24.6 113.7C26.3 114.6 27.8 114.8 29.3 114.4C30.7 114 31.9 113 32.7 111.4C33.2 110.3 33.5 109.4 33.6 108.6C33.6 107.8 33.4 107 32.9 106.2L31.1 107.2ZM24.1 124.9C23.7 125.2 23.3 125.4 22.9 125.5C22.4 125.6 22 125.6 21.4 125.6C20.9 125.5 20.4 125.4 19.8 125.2L18.2 124.5C17 124 16.2 123.4 15.8 122.5C15.4 121.7 15.3 120.7 15.8 119.7C16.2 118.7 16.9 118 17.8 117.7C18.7 117.4 19.7 117.5 20.9 118L22.5 118.7C23 118.9 23.5 119.2 23.9 119.5C24.3 119.8 24.6 120.2 24.9 120.6C25.1 121 25.3 121.5 25.3 121.9C25.3 122.4 25.2 122.9 25 123.4C24.7 124.2 24.4 124.6 24.1 124.9ZM21.7 116.1C19.9 115.4 18.3 115.2 17 115.7C15.7 116.2 14.6 117.3 14 118.9C13.3 120.5 13.3 122 13.9 123.3C14.5 124.6 15.7 125.6 17.5 126.4L19.1 127.1C20.8 127.8 22.4 127.9 23.8 127.5C25.2 127 26.2 126 26.9 124.3C27.3 123.4 27.5 122.6 27.4 121.8C27.3 121 27.2 120.3 26.9 119.7C26.6 119.1 26.1 118.5 25.5 118C24.9 117.5 24.2 117.1 23.4 116.7L21.7 116.1ZM7.8 136.7L7.1 138.8L20 142.9L20.7 140.8L15.1 139L16.9 133L22.5 134.8L23.2 132.7L10.3 128.6L9.6 130.7L15 132.4L13.1 138.5L7.8 136.7ZM11 152.7L11.6 150.1C11.9 149 12.2 148.2 12.6 147.7C13 147.3 13.6 147.1 14.3 147.3C15.1 147.5 15.6 147.8 15.8 148.4C16.1 149 16.1 149.7 15.9 150.7L15.2 153.7L11 152.7ZM3.6 153.2L16.8 156.2L18 150.6C18.2 149.8 18.2 149 18.2 148.4C18.1 147.7 17.9 147.2 17.7 146.7C17.4 146.2 17 145.8 16.6 145.6C16.1 145.3 15.6 145.1 15 145C13.6 144.7 12.5 144.9 11.6 145.7C10.8 146.5 10.1 147.8 9.7 149.6L9.1 152.3L4 151.2L3.6 153.2ZM1.3 167L6.7 167.8C7.6 167.9 8.5 168.1 9.2 168.2C9.9 168.3 10.6 168.6 11.2 168.9C11.7 169.2 12.1 169.5 12.3 169.9C12.5 170.3 12.6 170.7 12.7 171.1L14.7 171.4C14.7 170.6 14.6 169.8 14.3 169.1C14 168.4 13.4 167.7 12.6 167.2C11.6 166.6 10 166.1 7.8 165.8L3.6 165.2L4.2 160.8L15.6 162.5L15.9 160.4L2.5 158.4L1.3 167ZM9.1 176.1C9.8 176.1 10.4 176.3 10.8 176.6C11.2 176.9 11.5 177.2 11.7 177.6C11.9 178 12 178.4 12 178.8C12 179.2 12 179.6 12 180C11.9 180.9 11.7 181.5 11.4 181.8C11.1 182.1 10.6 182.3 10 182.3C9.7 182.3 9.4 182.2 9.1 182.1C8.8 182 8.6 181.9 8.5 181.6C8.3 181.4 8.2 181.1 8.1 180.7C8 180.3 7.9 179.8 7.8 179.2C7.7 178.3 7.6 177.6 7.4 177.2C7.3 176.7 7.1 176.3 7 176L9.1 176.1ZM12.7 183.6C13.4 182.9 13.8 181.9 13.9 180.4C14 179.4 13.9 178.6 13.6 177.9C13.3 177.2 12.8 176.7 12.2 176.3V176.2C12.6 176.2 12.9 176.2 13.2 176.2C13.5 176.2 13.8 176.1 14 176.1L14.2 173.9C13.7 174 13.2 174 12.7 174.1C12.2 174.1 11.7 174.1 11 174.1L4.7 173.7C3.1 173.6 2 173.9 1.3 174.7C0.599999 175.4 0.2 176.6 0.1 178.3C3.7998e-07 179.6 0.0999996 180.7 0.4 181.5C0.7 182.3 1.2 183 2 183.5L3.2 182C2.6 181.6 2.2 181.1 2.1 180.5C2 180 2 179.3 2 178.4C2.1 177.4 2.3 176.7 2.6 176.3C2.9 175.9 3.4 175.7 3.8 175.8C4.1 175.8 4.4 175.9 4.6 175.9C4.8 176 5 176.1 5.1 176.4C5.2 176.7 5.4 177 5.5 177.6C5.6 178.1 5.7 178.8 5.9 179.7C6 180.5 6.2 181.2 6.4 181.8C6.6 182.4 6.8 182.9 7.1 183.2C7.4 183.6 7.8 183.9 8.2 184.1C8.7 184.3 9.2 184.4 9.9 184.5C11.1 184.5 12 184.2 12.7 183.6ZM0 197.5H1.9V193.1L13.5 193V190.8L1.9 190.9V186.5H0V197.5ZM0.9 209.4L1.1 211.6L14.6 210.5L14.4 208.3L8.5 208.8L8 202.4L13.9 201.9L13.7 199.7L0.199999 200.8L0.4 203L6.1 202.5L6.6 208.9L0.9 209.4ZM14.2 221.4C14.1 221.9 13.8 222.3 13.5 222.6C13.2 222.9 12.8 223.2 12.3 223.4C11.8 223.6 11.3 223.8 10.7 223.9L8.9 224.2C7.6 224.4 6.6 224.3 5.8 223.8C5 223.3 4.5 222.6 4.3 221.5C4.1 220.4 4.3 219.5 4.9 218.8C5.5 218.1 6.5 217.6 7.7 217.4L9.5 217.1C10.1 217 10.6 217 11.1 217C11.6 217.1 12.1 217.2 12.5 217.4C12.9 217.6 13.3 217.9 13.6 218.3C13.9 218.7 14.1 219.2 14.2 219.7C14.3 220.4 14.3 220.9 14.2 221.4ZM7.4 215.2C5.5 215.5 4.1 216.3 3.2 217.4C2.3 218.5 2.1 220 2.4 221.8C2.7 223.6 3.5 224.8 4.7 225.6C5.9 226.4 7.5 226.6 9.4 226.3L11.2 226C13 225.7 14.4 225 15.3 223.8C16.2 222.7 16.5 221.2 16.2 219.4C16 218.4 15.7 217.6 15.3 217C14.9 216.4 14.4 215.9 13.8 215.5C13.2 215.1 12.5 214.9 11.7 214.8C10.9 214.7 10.1 214.7 9.2 214.9L7.4 215.2ZM13.3 236.2L13 235.1C12.7 234 12.7 233.1 12.9 232.5C13.1 231.9 13.6 231.5 14.2 231.3C14.9 231.1 15.5 231.2 16 231.6C16.5 232 16.8 232.6 17 233.4C17.2 234.4 17.3 235.1 17.1 235.7C16.9 236.3 16.7 236.7 16.4 237L18 238.3C18.6 237.7 19 236.9 19.2 236.1C19.4 235.2 19.3 234.1 19 232.8C18.8 231.9 18.5 231.2 18.1 230.7C17.7 230.1 17.3 229.7 16.8 229.4C16.3 229.1 15.8 228.9 15.3 228.8C14.8 228.7 14.3 228.7 13.8 228.9C12.9 229.1 12.2 229.5 11.8 230.2C11.4 230.8 11.1 231.5 11.1 232.2C10.7 231.7 10.2 231.3 9.6 231.1C9 230.9 8.4 230.8 7.6 231C7.1 231.1 6.7 231.3 6.4 231.7C6.1 232.1 5.8 232.4 5.6 232.9C5.4 233.4 5.3 233.9 5.2 234.5C5.2 235.1 5.2 235.8 5.4 236.4C5.6 237.1 5.8 237.7 6 238.1C6.2 238.6 6.5 239 6.8 239.3C7.1 239.6 7.4 239.9 7.7 240.1C8 240.3 8.3 240.4 8.6 240.6L9.3 238.7C8.7 238.4 8.3 238.1 8 237.7C7.7 237.3 7.4 236.8 7.3 236.2C7.1 235.4 7.1 234.7 7.3 234.3C7.5 233.9 7.9 233.6 8.4 233.4C9 233.2 9.5 233.4 10 233.8C10.4 234.2 10.8 234.8 11 235.7L11.3 236.9L13.3 236.2ZM11 253.4L11.7 255.4L24.5 251L23.8 249.1L12.2 246L21.6 242.8L20.9 240.8L8.1 245.2L8.8 247.2L20.2 250.4L11 253.4ZM26.8 261.8C26.8 262.3 26.7 262.7 26.4 263.1C26.2 263.5 25.8 263.9 25.4 264.2C25 264.5 24.5 264.8 24 265L22.2 265.8C21.1 266.3 20.1 266.4 19.2 266.1C18.3 265.8 17.7 265.2 17.2 264.2C16.7 263.2 16.7 262.3 17.1 261.4C17.5 260.6 18.3 259.9 19.5 259.4L21.1 258.7C21.6 258.5 22.1 258.3 22.7 258.2C23.2 258.1 23.7 258.1 24.2 258.3C24.7 258.4 25.1 258.6 25.5 258.9C25.9 259.2 26.2 259.6 26.4 260.1C26.7 260.7 26.8 261.3 26.8 261.8ZM17.1 268.1L18 270.1L35 262.5L34.1 260.5L28.2 263.1C28.5 262.6 28.7 262 28.7 261.3C28.7 260.6 28.5 259.9 28.2 259.1C27.8 258.3 27.4 257.6 26.8 257.1C26.2 256.6 25.6 256.3 25 256.1C24.3 255.9 23.6 255.9 22.8 256C22 256.1 21.2 256.3 20.4 256.7L18.8 257.4C17 258.2 15.9 259.2 15.3 260.5C14.7 261.8 14.8 263.2 15.5 264.8C15.9 265.6 16.3 266.2 16.8 266.7C17.3 267.1 17.8 267.4 18.4 267.5L17.1 268.1ZM33.5 275C33.5 275.5 33.4 275.9 33.2 276.4C33 276.8 32.7 277.2 32.3 277.6C31.9 278 31.5 278.3 31 278.5L29.4 279.4C28.3 280 27.3 280.2 26.3 280.1C25.4 279.9 24.6 279.4 24.1 278.4C23.6 277.4 23.5 276.5 23.8 275.6C24.1 274.7 24.9 274 26 273.4L27.6 272.5C28.1 272.2 28.6 272 29.1 271.9C29.6 271.8 30.1 271.8 30.6 271.8C31.1 271.9 31.5 272 31.9 272.3C32.3 272.6 32.6 273 32.9 273.5C33.3 274 33.5 274.6 33.5 275ZM25.1 271.4C23.4 272.3 22.3 273.5 21.9 274.8C21.5 276.2 21.7 277.6 22.5 279.2C23.4 280.8 24.5 281.7 25.9 282.1C27.3 282.5 28.8 282.2 30.5 281.2L32.1 280.3C33.7 279.4 34.8 278.3 35.3 276.9C35.8 275.5 35.6 274 34.7 272.5C34.2 271.6 33.7 271 33.1 270.5C32.5 270 31.8 269.7 31.1 269.6C30.4 269.5 29.7 269.5 28.9 269.6C28.1 269.8 27.4 270.1 26.6 270.5L25.1 271.4ZM26.6 286.2L31.1 293.1L42.4 285.7L41.2 283.9L31.5 290.2L28.2 285.1L26.6 286.2ZM44.6 307.8L43.2 306.1C42.8 305.6 42.5 305.2 42.4 304.9C42.2 304.5 42.1 304.2 42.1 304C42.1 303.7 42.1 303.5 42.2 303.3C42.3 303.1 42.5 302.9 42.7 302.8C43.1 302.4 43.6 302.3 44.1 302.5C44.6 302.6 45.2 303.1 45.8 303.8L47.4 305.7L44.6 307.8ZM48.8 304.4L47.1 302.3C46.4 301.4 45.9 300.6 45.8 300.1C45.7 299.5 46 299 46.6 298.5C47.2 298 47.8 297.9 48.3 298.1C48.9 298.3 49.5 298.8 50.1 299.5L52 301.8L48.8 304.4ZM44.5 310.7L55 302.2L51.4 297.8C50.9 297.1 50.3 296.6 49.7 296.3C49.1 296 48.6 295.7 48.1 295.7C47.6 295.6 47.1 295.7 46.6 295.8C46.1 295.9 45.7 296.2 45.3 296.5C44.6 297.1 44.2 297.7 44 298.5C43.8 299.3 43.9 300 44.2 300.6C43.7 300.4 43.2 300.3 42.6 300.3C42 300.3 41.5 300.5 41 300.9C40.1 301.6 39.7 302.5 39.8 303.6C39.9 304.6 40.4 305.7 41.3 306.9L44.5 310.7ZM65.6 316.2C65.8 316.7 65.8 317.1 65.7 317.6C65.6 318.1 65.5 318.5 65.2 319C64.9 319.5 64.6 319.9 64.2 320.3L63 321.6C62.1 322.5 61.2 323 60.3 323.1C59.4 323.2 58.5 322.9 57.7 322.1C56.9 321.3 56.5 320.5 56.6 319.5C56.7 318.6 57.2 317.6 58.1 316.7L59.3 315.4C59.7 315 60.1 314.6 60.6 314.4C61.1 314.1 61.5 314 62 313.9C62.5 313.8 62.9 313.9 63.4 314C63.9 314.1 64.3 314.4 64.7 314.8C65.1 315.3 65.4 315.8 65.6 316.2ZM56.5 315.3C55.2 316.7 54.5 318.1 54.4 319.5C54.4 320.9 55 322.3 56.3 323.5C57.6 324.7 58.9 325.3 60.4 325.2C61.8 325.1 63.2 324.4 64.6 323L65.8 321.7C67.1 320.4 67.8 318.9 67.8 317.5C67.9 316 67.2 314.7 66 313.4C65.3 312.7 64.6 312.3 63.9 312C63.2 311.7 62.5 311.6 61.8 311.7C61.1 311.8 60.4 312 59.7 312.4C59 312.8 58.4 313.3 57.8 313.9L56.5 315.3ZM62.3 328.9L68.6 334.2L77.3 323.8L75.6 322.4L68.2 331.3L63.6 327.4L62.3 328.9ZM76.4 336.7C76.4 335.9 76.6 335 77.3 334L82.4 337.7C81.7 338.6 80.9 339.1 80.1 339.4C79.3 339.7 78.5 339.4 77.7 338.8C76.9 338.3 76.4 337.6 76.4 336.7ZM79.9 329.9C80.4 329.7 81 329.6 81.5 329.7C82 329.8 82.7 330.1 83.4 330.6C83.9 330.9 84.2 331.3 84.5 331.8C84.7 332.2 84.8 332.7 84.9 333.1C84.9 333.6 84.8 334 84.7 334.5C84.5 335 84.3 335.5 83.9 335.9L83.7 336.2L76.8 331.2L76 332.3C74.9 333.9 74.3 335.4 74.4 336.7C74.5 338.1 75.3 339.3 76.7 340.3C78.1 341.3 79.5 341.7 80.9 341.4C82.2 341.1 83.5 340.1 84.6 338.6L85.6 337.2C86.7 335.7 87.2 334.2 87 332.7C86.8 331.2 86 330 84.5 328.9C83.5 328.2 82.7 327.8 81.8 327.6C81 327.4 80.2 327.6 79.3 328L79.9 329.9ZM94.7 348.7C94.6 347.9 94.7 347 95.2 346L100.8 349.1C100.2 350.1 99.5 350.7 98.8 351C98.1 351.3 97.2 351.2 96.3 350.7C95.4 350.2 94.8 349.5 94.7 348.7ZM97.3 341.5C97.8 341.2 98.3 341.1 98.9 341.1C99.4 341.1 100.1 341.3 100.9 341.8C101.4 342.1 101.8 342.4 102.1 342.8C102.4 343.2 102.5 343.6 102.6 344.1C102.7 344.6 102.6 345 102.5 345.6C102.4 346.1 102.2 346.6 101.9 347.1L101.7 347.4L94.2 343.3L93.5 344.5C92.6 346.2 92.2 347.7 92.5 349.1C92.8 350.4 93.7 351.6 95.3 352.4C96.9 353.3 98.3 353.4 99.6 353C100.9 352.5 102 351.4 102.9 349.7L103.8 348.1C104.7 346.4 105 344.9 104.6 343.5C104.2 342.1 103.3 340.9 101.7 340C100.7 339.4 99.7 339.1 98.9 339C98.1 338.9 97.3 339.2 96.5 339.7L97.3 341.5ZM112.5 360.6L113.3 358.8L109.3 357L114.1 346.5L112.1 345.6L107.3 356.1L103.3 354.3L102.5 356.1L112.5 360.6ZM123.9 365L125.9 365.8L130.6 353.2L128.7 352.5L118.9 359.4L122.4 350.1L120.4 349.3L115.7 361.9L117.6 362.6L127.3 355.8L123.9 365ZM139.2 369.6L141.3 370.2L144.9 357.2L142.8 356.6L141.2 362.3L135.1 360.6L136.7 354.9L134.6 354.3L131 367.3L133.1 367.9L134.6 362.4L140.7 364.1L139.2 369.6ZM155.1 361.2C155.5 361.5 155.8 361.8 156 362.3C156.2 362.7 156.3 363.2 156.4 363.7C156.4 364.2 156.4 364.8 156.3 365.3L155.9 367.2C155.7 368.4 155.2 369.3 154.5 369.9C153.8 370.5 152.9 370.7 151.8 370.5C150.7 370.3 149.9 369.8 149.5 369C149 368.2 148.9 367.1 149.2 365.9L149.5 364.1C149.6 363.5 149.8 363 150 362.5C150.2 362 150.5 361.6 150.9 361.3C151.3 361 151.7 360.8 152.1 360.6C152.6 360.5 153.1 360.5 153.6 360.6C154.2 360.7 154.7 360.9 155.1 361.2ZM154.8 372.8L156.9 373.2L160.3 354.9L158.2 354.5L157 360.9C156.7 360.3 156.3 359.9 155.8 359.5C155.3 359.1 154.6 358.9 153.7 358.7C152.8 358.5 152 358.5 151.3 358.7C150.6 358.9 149.9 359.2 149.4 359.6C148.9 360 148.4 360.6 148.1 361.3C147.8 362 147.5 362.8 147.3 363.6L147 365.4C146.6 367.3 146.8 368.9 147.6 370.1C148.3 371.3 149.6 372.1 151.2 372.4C152.1 372.6 152.8 372.6 153.5 372.4C154.1 372.2 154.7 371.9 155.1 371.5L154.8 372.8ZM165.2 371.5C164.8 370.8 164.6 369.9 164.6 368.8L170.9 369.4C170.7 370.5 170.4 371.4 169.8 372C169.2 372.6 168.4 372.8 167.4 372.7C166.3 372.6 165.6 372.2 165.2 371.5ZM164.7 363.8C165 363.3 165.5 363 166 362.8C166.5 362.6 167.2 362.5 168.1 362.6C168.7 362.7 169.2 362.8 169.6 363.1C170 363.4 170.3 363.7 170.6 364.1C170.8 364.5 171 365 171.1 365.5C171.2 366 171.2 366.5 171.2 367.1V367.5L162.7 366.7L162.6 368.1C162.4 370 162.7 371.6 163.5 372.7C164.3 373.8 165.6 374.5 167.4 374.7C169.2 374.9 170.6 374.5 171.5 373.5C172.5 372.5 173.1 371.1 173.3 369.2L173.5 367.4C173.7 365.5 173.3 364 172.4 362.8C171.5 361.6 170.1 360.9 168.3 360.8C167.1 360.7 166.1 360.8 165.4 361C164.6 361.3 164 361.8 163.4 362.6L164.7 363.8ZM184.7 373.3H182.5C181.9 373.3 181.4 373.2 181 373.2C180.6 373.1 180.3 373 180.1 372.8C179.9 372.6 179.7 372.5 179.6 372.2C179.5 372 179.5 371.7 179.5 371.5C179.5 370.9 179.7 370.5 180.2 370.2C180.6 369.9 181.3 369.7 182.3 369.8H184.8L184.7 373.3ZM184.8 367.8L182.1 367.7C180.9 367.7 180.1 367.5 179.6 367.2C179.1 366.9 178.8 366.4 178.9 365.6C178.9 364.8 179.2 364.3 179.7 364C180.2 363.7 181 363.5 181.9 363.6L184.9 363.7L184.8 367.8ZM186.8 375.3L187.1 361.8L181.4 361.7C180.5 361.7 179.8 361.8 179.2 362C178.6 362.2 178.1 362.5 177.7 362.8C177.3 363.2 177 363.6 176.8 364C176.6 364.5 176.5 364.9 176.5 365.4C176.5 366.3 176.7 367.1 177.2 367.7C177.7 368.3 178.3 368.7 178.9 369C178.4 369.2 178 369.6 177.7 370C177.4 370.5 177.2 371 177.2 371.6C177.2 372.8 177.6 373.7 178.5 374.3C179.4 374.9 180.5 375.2 182 375.2L186.8 375.3ZM197.9 363.3C198.3 363.5 198.7 363.8 199 364.1C199.3 364.5 199.5 364.9 199.7 365.4C199.9 365.9 200 366.4 200 367L200.1 368.8C200.2 370.1 200 371.1 199.4 371.9C198.9 372.7 198 373.1 196.9 373.2C195.8 373.3 194.9 373 194.3 372.3C193.7 371.6 193.3 370.6 193.2 369.3L193.1 367.5C193.1 366.9 193.1 366.4 193.2 365.9C193.3 365.4 193.5 364.9 193.8 364.5C194.1 364.1 194.4 363.8 194.8 363.5C195.2 363.3 195.7 363.1 196.3 363.1C196.9 363 197.4 363.1 197.9 363.3ZM191.1 369.4C191.2 371.3 191.8 372.8 192.9 373.8C193.9 374.8 195.4 375.2 197.2 375.1C199 375 200.3 374.4 201.2 373.2C202.1 372.1 202.5 370.6 202.4 368.6L202.3 366.8C202.2 364.9 201.6 363.5 200.5 362.5C199.5 361.5 198 361 196.2 361.1C195.2 361.2 194.4 361.4 193.7 361.7C193 362.1 192.5 362.5 192.1 363.1C191.7 363.7 191.4 364.3 191.2 365.1C191 365.9 191 366.7 191 367.6L191.1 369.4ZM217.8 372.4L215.8 359L213.7 359.3L215.4 370.7L209.1 371.6L207.4 360.2L205.3 360.5L207.3 373.9L217.8 372.4ZM231.9 366.4C231.2 365.9 230.7 365.1 230.4 364.1L236.5 362.4C236.7 363.5 236.7 364.4 236.4 365.2C236.1 366 235.4 366.5 234.4 366.7C233.4 367 232.6 366.9 231.9 366.4ZM228.8 359.4C228.9 358.8 229.2 358.4 229.6 358C230 357.6 230.6 357.3 231.5 357.1C232.1 356.9 232.6 356.9 233.1 357C233.6 357.1 234 357.3 234.4 357.6C234.8 357.9 235.1 358.2 235.4 358.7C235.7 359.1 235.9 359.6 236 360.2L236.1 360.6L227.9 362.9L228.3 364.3C228.8 366.2 229.7 367.5 230.8 368.3C231.9 369.1 233.4 369.2 235.1 368.7C236.8 368.2 238 367.4 238.5 366.1C239.1 364.8 239.1 363.3 238.6 361.4L238.1 359.7C237.6 357.9 236.7 356.6 235.4 355.8C234.1 355 232.6 354.9 230.9 355.4C229.8 355.7 228.9 356.1 228.2 356.7C227.6 357.2 227.1 358 226.9 358.9L228.8 359.4ZM250.9 361L248.8 361.8C248.2 362 247.8 362.1 247.4 362.2C247 362.3 246.7 362.3 246.4 362.2C246.1 362.1 245.9 362 245.8 361.8C245.6 361.6 245.5 361.4 245.4 361.2C245.2 360.7 245.3 360.2 245.5 359.8C245.7 359.4 246.4 359 247.3 358.6L249.7 357.7L250.9 361ZM249 355.9L246.5 356.8C245.4 357.2 244.6 357.4 244 357.3C243.4 357.2 243 356.8 242.7 356.1C242.4 355.4 242.5 354.8 242.8 354.3C243.2 353.8 243.8 353.4 244.7 353.1L247.5 352L249 355.9ZM253.6 362.1L248.9 349.5L243.6 351.5C242.8 351.8 242.1 352.2 241.6 352.6C241.1 353 240.7 353.5 240.5 354C240.3 354.5 240.1 355 240.1 355.5C240.1 356 240.2 356.5 240.3 356.9C240.6 357.7 241.1 358.4 241.8 358.8C242.5 359.2 243.2 359.4 243.9 359.3C243.5 359.7 243.3 360.2 243.1 360.7C242.9 361.2 243 361.8 243.2 362.4C243.6 363.5 244.3 364.2 245.3 364.4C246.3 364.6 247.5 364.5 248.9 364L253.6 362.1ZM266.8 356.2L266 354.4L262 356.2L257.2 345.7L255.2 346.6L260 357.1L256 358.9L256.8 360.7L266.8 356.2ZM265.6 345.3C265.6 344.7 265.8 344.1 266.1 343.7C266.5 343.2 266.9 342.8 267.5 342.5C268.1 342.2 268.6 342 269.1 342C269.6 342 270.1 342 270.5 342.2C270.9 342.4 271.3 342.7 271.7 343C272.1 343.4 272.4 343.8 272.7 344.3L273.6 345.9C274.2 347 274.4 348.1 274.2 349C274 349.9 273.4 350.7 272.4 351.3C271.8 351.6 271.3 351.8 270.7 351.8C270.1 351.8 269.6 351.8 269.1 351.5L268.2 353.4C269 353.8 269.8 353.9 270.6 353.8C271.5 353.7 272.4 353.4 273.3 353C274.9 352.1 275.9 351 276.3 349.5C276.7 348.1 276.4 346.5 275.5 344.8L274.6 343.2C273.7 341.6 272.5 340.5 271.1 340C269.7 339.5 268.2 339.7 266.5 340.6C265.5 341.1 264.8 341.7 264.3 342.4C263.8 343.1 263.5 343.9 263.5 344.8L265.6 345.3ZM288.2 349.9C287.9 349.5 287.8 349.1 287.8 348.7C287.9 348.3 288.1 347.9 288.7 347.6C289.2 347.2 289.7 347.1 290.1 347.2C290.5 347.3 290.8 347.6 291.1 348L292.7 346.9C292.1 346 291.4 345.5 290.6 345.4C289.8 345.3 288.9 345.6 287.9 346.3C286.9 347 286.3 347.7 286.1 348.5C285.9 349.3 286.1 350.1 286.6 351L288.2 349.9ZM289.6 342.8L291.4 341.6L283.9 330.4L282.2 331.5L282.1 343.5L276.6 335.2L274.8 336.4L282.3 347.6L284 346.4L284.2 334.6L289.6 342.8ZM293.7 325.5C294.2 325.4 294.6 325.4 295.1 325.5C295.6 325.6 296 325.8 296.4 326.2C296.8 326.5 297.2 326.9 297.6 327.4L298.7 328.8C299.5 329.8 299.9 330.8 299.9 331.7C299.9 332.6 299.4 333.5 298.6 334.2C297.7 334.9 296.8 335.1 295.9 335C295 334.8 294.1 334.2 293.3 333.2L292.2 331.8C291.8 331.3 291.6 330.9 291.4 330.4C291.2 329.9 291.1 329.4 291.1 329C291.1 328.5 291.2 328.1 291.4 327.6C291.6 327.2 291.9 326.8 292.4 326.4C292.7 325.8 293.2 325.6 293.7 325.5ZM291.5 334.4C292.7 335.9 294 336.8 295.4 337C296.8 337.2 298.2 336.8 299.6 335.6C301 334.5 301.7 333.2 301.9 331.8C302.1 330.4 301.5 328.9 300.3 327.4L299.2 326C298 324.5 296.7 323.7 295.3 323.4C293.9 323.1 292.4 323.6 291 324.7C290.2 325.3 289.7 325.9 289.3 326.6C288.9 327.3 288.8 328 288.7 328.7C288.7 329.4 288.8 330.1 289.1 330.9C289.4 331.6 289.8 332.3 290.4 333L291.5 334.4ZM304.4 316.1C304.9 316 305.3 315.9 305.8 316C306.3 316.1 306.7 316.3 307.1 316.5C307.5 316.8 308 317.1 308.3 317.5L309.7 318.9C310.5 319.8 311 320.7 311 321.6C311 322.5 310.7 323.4 309.9 324.1C309.1 324.9 308.2 325.2 307.3 325.1C306.4 325 305.5 324.5 304.6 323.5L303.4 322.2C303 321.8 302.7 321.3 302.4 320.9C302.2 320.4 302 320 302 319.5C301.9 319 302 318.6 302.2 318.1C302.4 317.6 302.7 317.2 303.1 316.8C303.4 316.6 303.9 316.3 304.4 316.1ZM313.6 323.2L315.2 321.7L302.4 308.1L300.8 309.6L305.2 314.3C304.6 314.2 304 314.2 303.4 314.4C302.8 314.6 302.1 315 301.5 315.6C300.8 316.2 300.4 316.9 300.1 317.6C299.8 318.3 299.7 319 299.7 319.7C299.7 320.4 299.9 321.1 300.3 321.8C300.7 322.5 301.1 323.2 301.7 323.8L302.9 325.1C304.2 326.5 305.6 327.3 307 327.4C308.4 327.5 309.7 327 311 325.8C311.7 325.2 312.1 324.6 312.4 324C312.6 323.4 312.7 322.8 312.6 322.2L313.6 323.2ZM325 311.2L323.6 309.9L320.6 313.1L312.1 305.3L310.6 306.9L319.1 314.7L316.1 318L317.5 319.3L325 311.2ZM319.6 301.6C319.4 301 319.3 300.5 319.5 299.9C319.7 299.3 319.9 298.8 320.3 298.3C320.7 297.8 321.1 297.4 321.6 297.2C322.1 297 322.5 296.9 323 296.9C323.5 296.9 324 297 324.4 297.2C324.9 297.4 325.3 297.7 325.8 298.1L327.2 299.2C328.2 300 328.8 300.9 329 301.8C329.2 302.7 328.9 303.7 328.2 304.6C327.8 305.1 327.4 305.5 326.9 305.7C326.4 306 325.9 306.1 325.3 306.1L325.2 308.2C326 308.2 326.8 308.1 327.6 307.7C328.4 307.3 329.1 306.7 329.7 305.9C330.8 304.5 331.3 303 331.1 301.6C330.9 300.2 330.1 298.8 328.6 297.6L327.2 296.5C325.7 295.3 324.3 294.8 322.8 294.9C321.3 295 320 295.8 318.8 297.2C318.1 298.1 317.7 298.9 317.4 299.8C317.2 300.7 317.3 301.5 317.6 302.3L319.6 301.6ZM327.4 285.1C327 284.6 326.7 284.2 326.6 283.8C326.4 283.4 326.3 283.1 326.3 282.7C326.3 282.4 326.4 282.1 326.5 281.7C326.6 281.4 326.8 281.1 327.1 280.7L325.3 279.5C324.8 280.3 324.4 281 324.3 281.6C324.1 282.2 324.1 282.8 324.2 283.3C324.3 283.8 324.5 284.4 324.9 284.9C325.2 285.5 325.7 286.1 326.2 286.7L335.2 298.4L336.5 296.5L329.7 287.7L340.6 290.2L341.9 288.3L327.6 285.1H327.4ZM352.6 268.7L353.5 266.8L341.4 260.7L340.4 262.6L348.7 266.8L341 267L340.2 268.6L344.6 275.1L336.2 270.9L335.2 272.8L347.3 278.9L348.2 277L342.8 269L352.6 268.7ZM347.3 251.5C347.7 251.2 348.1 250.9 348.5 250.8C349 250.7 349.4 250.6 350 250.7C350.5 250.8 351 250.9 351.6 251.1L353.3 251.7C354.5 252.2 355.3 252.8 355.8 253.6C356.3 254.4 356.3 255.3 355.9 256.4C355.5 257.4 354.9 258.1 354 258.4C353.1 258.7 352.1 258.6 350.9 258.1L349.2 257.5C348.7 257.3 348.2 257 347.8 256.7C347.4 256.4 347 256 346.8 255.6C346.6 255.2 346.4 254.8 346.4 254.3C346.4 253.8 346.4 253.3 346.6 252.8C346.7 252.3 347 251.9 347.3 251.5ZM350 260.3C351.8 261 353.4 261.1 354.7 260.6C356 260.1 357 259 357.7 257.3C358.3 255.6 358.4 254.2 357.7 252.9C357.1 251.6 355.9 250.6 354.1 249.9L352.4 249.3C350.7 248.6 349.1 248.5 347.7 249C346.3 249.5 345.3 250.6 344.7 252.3C344.3 253.2 344.2 254 344.2 254.8C344.2 255.6 344.4 256.3 344.8 256.9C345.1 257.5 345.6 258.1 346.2 258.6C346.8 259.1 347.5 259.5 348.4 259.8L350 260.3ZM363.4 239.3L364 237.2L351 233.4L350.4 235.5L356.1 237.1L354.3 243.2L348.6 241.6L348 243.7L361 247.5L361.6 245.4L356.2 243.8L358 237.7L363.4 239.3ZM359.7 223.5L359.2 226.1C359 227.2 358.7 228 358.2 228.5C357.8 228.9 357.2 229.1 356.5 228.9C355.7 228.7 355.2 228.4 354.9 227.8C354.6 227.2 354.6 226.5 354.8 225.5L355.4 222.5L359.7 223.5ZM367.1 222.7L353.9 220.1L352.8 225.7C352.6 226.5 352.6 227.3 352.7 227.9C352.8 228.6 353 229.1 353.3 229.6C353.6 230.1 354 230.4 354.5 230.7C355 231 355.5 231.2 356.1 231.3C357.5 231.6 358.6 231.3 359.4 230.5C360.2 229.7 360.8 228.4 361.2 226.6L361.7 223.9L366.8 224.9L367.1 222.7ZM369 208.9L363.6 208.2C362.7 208.1 361.8 208 361.1 207.9C360.4 207.8 359.7 207.6 359.1 207.3C358.6 207 358.2 206.7 358 206.3C357.8 205.9 357.7 205.5 357.6 205.1L355.6 204.9C355.6 205.7 355.7 206.5 356 207.2C356.3 207.9 356.9 208.5 357.8 209C358.9 209.6 360.5 210 362.6 210.3L366.8 210.8L366.3 215.2L354.8 213.8L354.5 215.9L367.9 217.5L369 208.9ZM369.9 193.6L370 191.4L356.5 191L356.4 193L366.1 200.1L356.2 199.8L356.1 202L369.6 202.4L369.7 200.3L360.2 193.3L369.9 193.6ZM358.2 180.2C358.4 179.8 358.7 179.4 359 179.1C359.4 178.8 359.8 178.6 360.3 178.4C360.8 178.3 361.3 178.2 361.9 178.1L363.4 178C364.7 177.9 365.7 178.2 366.4 178.8C367.2 179.4 367.6 180.2 367.6 181.4C367.6 182.5 367.3 183.4 366.6 184C365.9 184.6 364.9 185 363.6 185L362.1 185.1C361.5 185.1 361 185.1 360.5 185C360 184.9 359.5 184.7 359.1 184.4C358.7 184.1 358.4 183.8 358.2 183.4C358 183 357.8 182.5 357.8 181.9C357.9 181.2 358 180.6 358.2 180.2ZM375.9 185.9C375.7 185.5 375.5 185 375.4 184.3C375.2 183.6 375 182.6 374.9 181.4C374.7 180 374.3 178.9 373.7 178.1C373.1 177.3 372.3 176.8 371.3 176.4C370.3 176 369.2 175.8 367.9 175.8C366.6 175.8 365.2 175.8 363.6 175.8L361.9 176C360 176.1 358.5 176.6 357.5 177.7C356.5 178.7 356 180.1 356.1 181.9C356.1 182.9 356.3 183.7 356.7 184.4C357 185.1 357.5 185.6 358 186.1C358.6 186.5 359.2 186.8 360 187C360.8 187.2 361.6 187.3 362.5 187.2L364 187.1C365.9 187 367.4 186.5 368.4 185.5C369.4 184.5 369.9 183.3 369.8 181.7C369.8 181 369.6 180.3 369.3 179.6C369 178.9 368.5 178.3 367.9 177.9C368.8 177.9 369.5 178 370.2 178.2C370.8 178.4 371.3 178.6 371.7 179C372.1 179.3 372.4 179.8 372.6 180.3C372.8 180.8 372.9 181.4 373 182C373.1 183 373.3 183.9 373.4 184.6C373.6 185.3 373.7 185.8 374 186L375.9 185.9ZM356.8 166C357 165.5 357.2 165.2 357.5 164.8C357.8 164.5 358.2 164.2 358.7 164C359.2 163.8 359.7 163.7 360.3 163.6L362.1 163.4C363.4 163.2 364.4 163.4 365.2 163.9C366 164.4 366.5 165.2 366.6 166.3C366.7 167.4 366.5 168.3 365.9 169C365.3 169.7 364.3 170.1 363 170.3L361.2 170.5C360.6 170.6 360.1 170.6 359.6 170.5C359.1 170.4 358.6 170.3 358.2 170C357.8 169.8 357.4 169.4 357.2 169C356.9 168.6 356.8 168.1 356.7 167.5C356.6 167 356.6 166.5 356.8 166ZM363.3 172.4C365.2 172.1 366.6 171.5 367.5 170.4C368.4 169.3 368.7 167.9 368.5 166.1C368.3 164.3 367.6 163 366.4 162.2C365.2 161.4 363.7 161.1 361.8 161.3L360 161.5C358.1 161.7 356.7 162.4 355.8 163.5C354.8 164.6 354.5 166.1 354.7 167.8C354.8 168.8 355.1 169.6 355.5 170.2C355.9 170.9 356.4 171.4 357 171.8C357.6 172.2 358.3 172.4 359 172.6C359.8 172.7 360.6 172.7 361.5 172.6L363.3 172.4ZM364.3 144.6L363.8 142.5L350.6 145.5L351.1 147.6L360.2 145.6L354.4 150.7L354.8 152.5L362.3 154.8L353.1 156.9L353.6 159L366.8 156L366.3 153.9L357 151.1L364.3 144.6ZM351.3 131.4C350.6 131.6 350.1 131.7 349.6 131.6C349.1 131.5 348.7 131.3 348.4 131.1C348.1 130.8 347.8 130.5 347.6 130.1C347.4 129.7 347.2 129.4 347.1 129.1C346.8 128.3 346.7 127.6 346.9 127.2C347.1 126.7 347.4 126.4 348 126.2C348.3 126.1 348.6 126 348.9 126C349.2 126 349.4 126 349.7 126.1C350 126.2 350.2 126.4 350.5 126.7C350.8 127 351.1 127.4 351.4 128C351.9 128.8 352.3 129.3 352.6 129.7C352.9 130.1 353.2 130.4 353.5 130.7L351.3 131.4ZM344.9 126.1C344.5 127 344.6 128.1 345.1 129.5C345.4 130.4 345.9 131.1 346.4 131.6C347 132.1 347.6 132.4 348.3 132.4V132.5C347.9 132.6 347.6 132.8 347.4 132.9C347.1 133 346.9 133.2 346.7 133.4L347.5 135.4C347.9 135.1 348.4 134.8 348.8 134.6C349.2 134.4 349.7 134.2 350.3 134L356.2 131.8C357.7 131.2 358.6 130.5 358.9 129.5C359.2 128.5 359.1 127.3 358.5 125.7C358 124.4 357.5 123.5 356.9 122.9C356.3 122.3 355.5 121.9 354.6 121.7L354.1 123.6C354.8 123.8 355.4 124 355.7 124.5C356 124.9 356.3 125.6 356.6 126.4C357 127.3 357.1 128.1 356.9 128.6C356.7 129.1 356.4 129.4 356 129.6C355.7 129.7 355.5 129.8 355.3 129.8C355.1 129.8 354.9 129.7 354.6 129.6C354.4 129.4 354.1 129.1 353.8 128.7C353.5 128.3 353.1 127.7 352.6 126.9C352.1 126.2 351.7 125.6 351.3 125.2C350.9 124.7 350.5 124.4 350 124.2C349.6 124 349.1 123.9 348.6 123.9C348.1 123.9 347.6 124 346.9 124.3C346 124.5 345.3 125.2 344.9 126.1ZM351 108.6L350.1 106.6L337.9 112.4L338.8 114.4L344.1 111.9L346.8 117.7L341.5 120.2L342.4 122.2L354.6 116.4L353.7 114.4L348.6 116.8L345.9 111L351 108.6ZM335.6 98.5C335 98.9 334.5 99.1 334 99.1C333.5 99.1 333.1 99 332.7 98.8C332.3 98.6 332 98.3 331.7 98C331.4 97.7 331.2 97.4 331 97.1C330.5 96.4 330.3 95.7 330.4 95.3C330.5 94.8 330.8 94.4 331.3 94.1C331.6 93.9 331.9 93.8 332.1 93.7C332.4 93.6 332.6 93.6 332.9 93.7C333.2 93.8 333.5 93.9 333.8 94.2C334.1 94.4 334.5 94.8 335 95.3C335.6 95.9 336.1 96.4 336.5 96.7C336.9 97 337.2 97.3 337.6 97.5L335.6 98.5ZM328.3 94.6C328.1 95.5 328.4 96.6 329.2 97.9C329.7 98.7 330.3 99.3 330.9 99.7C331.5 100.1 332.2 100.2 333 100.1C332.7 100.3 332.4 100.5 332.2 100.7C332 100.9 331.8 101.1 331.6 101.3L332.8 103.1C333.2 102.7 333.6 102.4 333.9 102.1C334.2 101.8 334.7 101.5 335.3 101.2L340.6 97.8C342 96.9 342.7 96 342.8 95C342.9 94 342.5 92.8 341.6 91.4C340.9 90.3 340.2 89.4 339.4 89C338.7 88.5 337.9 88.3 336.9 88.3L336.8 90.3C337.5 90.3 338.1 90.5 338.5 90.9C338.9 91.3 339.3 91.8 339.8 92.6C340.3 93.5 340.6 94.1 340.5 94.6C340.5 95.1 340.2 95.5 339.8 95.7C339.5 95.9 339.3 96 339.1 96C338.9 96.1 338.7 96 338.4 95.9C338.1 95.8 337.8 95.5 337.4 95.2C337 94.9 336.5 94.4 335.9 93.7C335.3 93.1 334.8 92.6 334.3 92.3C333.8 91.9 333.3 91.7 332.9 91.6C332.4 91.5 332 91.5 331.5 91.6C331 91.7 330.5 91.9 330 92.3C329 92.9 328.4 93.6 328.3 94.6ZM322.8 84.8C322.7 84.3 322.7 83.9 322.9 83.4C323 82.9 323.3 82.5 323.6 82.1C323.9 81.7 324.3 81.3 324.8 81L326.4 79.8C327.4 79.1 328.3 78.7 329.2 78.8C330.1 78.9 330.9 79.3 331.6 80.2C332.3 81.1 332.5 82 332.3 82.9C332.1 83.8 331.5 84.7 330.4 85.4L329 86.5C328.5 86.8 328.1 87.1 327.6 87.3C327.1 87.5 326.6 87.6 326.2 87.6C325.7 87.6 325.3 87.5 324.8 87.3C324.4 87.1 324 86.7 323.6 86.3C323.1 85.7 322.9 85.3 322.8 84.8ZM330.8 76.4L329.5 74.7L314.6 85.9L315.9 87.6L321.1 83.7C320.9 84.3 320.9 84.9 321 85.5C321.1 86.1 321.5 86.8 322 87.5C322.6 88.2 323.2 88.8 323.8 89.1C324.5 89.5 325.1 89.6 325.8 89.7C326.5 89.7 327.2 89.6 327.9 89.3C328.6 89 329.3 88.6 330 88.1L331.4 87C332.9 85.8 333.9 84.5 334.1 83.2C334.4 81.8 334 80.4 333 79.1C332.5 78.4 331.9 77.9 331.3 77.6C330.7 77.3 330.1 77.1 329.5 77.2L330.8 76.4ZM320.1 63.8L318.6 65.1L321.5 68.4L312.9 76L314.3 77.6L323 70L325.9 73.3L327.4 72L320.1 63.8ZM305 64.9C304.8 64.4 304.8 64 304.9 63.5C305 63 305.1 62.6 305.4 62.1C305.7 61.7 306 61.2 306.4 60.8L307.7 59.5C308.6 58.6 309.5 58.1 310.5 58C311.4 57.9 312.3 58.2 313.1 59C313.9 59.8 314.2 60.6 314.2 61.6C314.1 62.5 313.6 63.5 312.7 64.4L311.4 65.7C311 66.1 310.6 66.4 310.1 66.7C309.6 67 309.2 67.1 308.7 67.2C308.2 67.3 307.8 67.2 307.3 67.1C306.8 67 306.4 66.7 306 66.3C305.5 65.8 305.2 65.4 305 64.9ZM314.1 66C315.5 64.6 316.2 63.2 316.2 61.8C316.2 60.4 315.6 59 314.3 57.8C313 56.5 311.7 55.9 310.2 56C308.8 56.1 307.4 56.8 306 58.1L304.7 59.4C303.4 60.7 302.7 62.1 302.6 63.6C302.5 65.1 303.1 66.4 304.4 67.7C305.1 68.4 305.8 68.9 306.5 69.1C307.2 69.4 307.9 69.5 308.6 69.4C309.3 69.3 310 69.1 310.7 68.7C311.4 68.3 312 67.8 312.7 67.2L314.1 66ZM297.7 43.5L296.1 42.2L287.6 52.7L289.3 54.1L295.2 46.9L293.8 54.5L295.2 55.6L302.5 52.7L296.6 60L298.3 61.4L306.8 50.9L305.2 49.6L296.2 53.1L297.7 43.5ZM285.7 47.3C285.2 47.6 284.6 47.7 284 47.6C283.4 47.5 282.9 47.3 282.3 46.9C281.8 46.5 281.4 46.1 281.1 45.7C280.8 45.3 280.7 44.8 280.6 44.3C280.6 43.8 280.6 43.3 280.8 42.8C281 42.3 281.2 41.8 281.5 41.3L282.5 39.8C283.2 38.7 284 38.1 285 37.8C285.9 37.5 286.9 37.7 287.9 38.4C288.4 38.7 288.8 39.2 289.1 39.7C289.4 40.2 289.6 40.7 289.6 41.2H291.7C291.7 40.4 291.4 39.6 291 38.8C290.5 38.1 289.9 37.4 289 36.8C287.5 35.8 286 35.4 284.6 35.7C283.2 36 281.9 37 280.8 38.6L279.8 40.1C278.8 41.7 278.4 43.2 278.6 44.7C278.8 46.2 279.7 47.4 281.3 48.5C282.2 49.1 283.1 49.5 284 49.6C284.9 49.7 285.7 49.6 286.5 49.2L285.7 47.3ZM268.9 38.3C268.6 37.9 268.5 37.5 268.4 37C268.3 36.5 268.4 36 268.5 35.5C268.6 35 268.9 34.5 269.1 34L270 32.4C270.6 31.3 271.4 30.6 272.3 30.2C273.2 29.9 274.1 30 275.1 30.5C276.1 31 276.6 31.8 276.8 32.7C277 33.6 276.7 34.6 276.1 35.8L275.2 37.4C274.9 37.9 274.6 38.3 274.2 38.7C273.8 39.1 273.4 39.3 273 39.5C272.6 39.7 272.1 39.8 271.6 39.7C271.1 39.6 270.6 39.5 270.1 39.2C269.6 39 269.2 38.7 268.9 38.3ZM277.9 37C278.9 35.3 279.2 33.8 278.8 32.4C278.5 31 277.5 29.9 276 29C274.5 28.1 273 27.9 271.6 28.3C270.2 28.7 269.1 29.8 268.1 31.5L267.2 33.1C266.3 34.7 266 36.3 266.3 37.7C266.6 39.1 267.5 40.3 269.1 41.2C269.9 41.7 270.7 42 271.5 42C272.3 42.1 273 42 273.6 41.8C274.3 41.6 274.9 41.2 275.4 40.6C276 40.1 276.5 39.4 276.9 38.6L277.9 37ZM256.2 31.9C255.9 31.5 255.7 31.1 255.6 30.6C255.5 30.1 255.5 29.7 255.6 29.1C255.7 28.6 255.9 28.1 256.1 27.5L256.9 25.7C257.4 24.6 258.1 23.8 258.9 23.5C259.7 23.1 260.7 23.2 261.6 23.6C262.6 24.1 263.2 24.7 263.5 25.7C263.7 26.6 263.6 27.6 263 28.8L262.3 30.4C262.1 30.9 261.8 31.4 261.4 31.8C261.1 32.2 260.7 32.5 260.3 32.7C259.9 32.9 259.4 33 258.9 33.1C258.4 33.1 257.9 33 257.4 32.8C256.9 32.6 256.5 32.3 256.2 31.9ZM259.3 20.7L257.3 19.8L249.5 36.7L251.5 37.6L254.2 31.7C254.3 32.3 254.6 32.9 255 33.4C255.4 33.9 256 34.3 256.9 34.7C257.7 35.1 258.5 35.3 259.3 35.3C260 35.3 260.7 35.2 261.4 34.9C262 34.6 262.6 34.2 263.1 33.6C263.6 33 264 32.3 264.4 31.5L265.1 29.9C265.9 28.1 266.1 26.6 265.7 25.2C265.3 23.9 264.3 22.8 262.7 22.1C261.9 21.7 261.1 21.5 260.5 21.5C259.8 21.5 259.3 21.6 258.7 22L259.3 20.7ZM242.3 14.2L237.7 26.9L239.7 27.6L243.6 16.7L249.6 18.9L245.7 29.8L247.7 30.5L252.3 17.8L242.3 14.2ZM226.7 16.5L224.3 16C223.2 15.7 222.4 15.4 222 14.9C221.6 14.4 221.5 13.8 221.6 13C221.9 11.6 223 11.2 225 11.6L227.7 12.2L226.7 16.5ZM227.3 23.9L230.3 10.7L225.2 9.6C224.3 9.4 223.5 9.3 222.8 9.4C222.1 9.5 221.5 9.7 221.1 10C220.6 10.3 220.2 10.6 220 11.1C219.7 11.5 219.5 12 219.4 12.5C219.2 13.6 219.2 14.5 219.6 15.3C220 16.1 220.6 16.7 221.5 17.1L216.8 21.7L219.2 22.2L223.6 17.9L226.4 18.5L225.3 23.6L227.3 23.9ZM206.5 6.4L205.8 11.8C205.7 12.7 205.6 13.6 205.4 14.3C205.2 15 205.1 15.7 204.8 16.3C204.5 16.8 204.2 17.2 203.8 17.4C203.4 17.6 203 17.7 202.6 17.8L202.3 19.8C203.1 19.8 203.9 19.7 204.6 19.4C205.3 19.1 205.9 18.5 206.4 17.6C207 16.6 207.5 15 207.8 12.8L208.4 8.6L212.8 9.2L211.3 20.7L213.4 21L215.2 7.6L206.5 6.4ZM189.5 10.5C189.8 8.9 190 6.8 190.1 4.4L190.2 2.2L196.7 2.5L196.1 16.9L187.4 16.5C187.9 16 188.3 15.3 188.6 14.4C188.9 13.5 189.2 12.1 189.5 10.5ZM185.6 22.1L185.8 18.6L198.3 19.2L198.1 22.7L200.4 22.8L200.6 17.2L198.3 17.1L199 0.6L187.9 0L187.7 4.3C187.6 6.4 187.5 8.2 187.2 9.7C186.9 11.2 186.7 12.4 186.4 13.3C186.3 13.6 186.1 13.9 186 14.3C185.9 14.6 185.7 14.9 185.5 15.2C185.3 15.5 185.1 15.7 184.9 15.9C184.7 16.1 184.5 16.3 184.3 16.4H183.5L183.3 22L185.6 22.1Z" fill="white"/>
</svg>
