<svg width="117" height="117" viewBox="0 0 117 117" fill="none" xmlns="http://www.w3.org/2000/svg">
<path d="M58.2 0C26.1 0 0 26.1 0 58.2C0 90.3 26.1 116.4 58.2 116.4C90.3 116.4 116.4 90.3 116.4 58.2C116.5 26.1 90.4 0 58.2 0ZM58.2 114.5C27.2 114.5 2 89.3 2 58.3C2 27.3 27.2 2.1 58.2 2.1C89.2 2.1 114.4 27.3 114.4 58.3C114.4 89.3 89.3 114.5 58.2 114.5Z" fill="#005CB9"/>
<path d="M61.2 36.6C60.9 36.4 60.4 36.5 60.1 36.7C60 36.8 48.4 45.4 41.5 50.1H34.2C33.6 50.1 33.2 50.6 33.2 51.1V65.4C33.2 66 33.7 66.4 34.2 66.4H41.5C44.9 68.7 47.8 70.9 50.6 73C53.5 75.2 56.6 77.5 60.1 79.8C60.3 79.9 60.5 80 60.7 80C60.9 80 61 80 61.2 79.9C61.5 79.7 61.7 79.4 61.7 79V37.5C61.8 37.1 61.5 36.8 61.2 36.6ZM59.7 77C56.9 75 54.4 73.2 51.9 71.3C49 69.1 45.9 66.8 42.4 64.5C42.2 64.4 42 64.3 41.8 64.3H35.2V52.1H41.8C42 52.1 42.2 52 42.4 51.9C47.8 48.3 56.2 42.1 59.7 39.5V77Z" fill="#005CB9"/>
<path d="M67 55.2C66.6 55.6 66.6 56.2 67 56.6C67.4 57 67.7 57.6 67.7 58.2C67.7 58.8 67.4999 59.3 67 59.8C66.6 60.2 66.6 60.9 67 61.2C67.4 61.6 68 61.6 68.4 61.2C69.2999 60.4 69.7 59.3 69.7 58.1C69.7 56.9 69.1999 55.8 68.4 55C68 54.8 67.4 54.8 67 55.2Z" fill="#005CB9"/>
<path d="M73.2 50.3999C72.8 49.9999 72.2 49.9999 71.8 50.3999C71.4 50.7999 71.4 51.3999 71.8 51.7999C73.5 53.4999 74.5 55.7999 74.5 58.0999C74.5 60.4999 73.6 62.7998 71.8 64.3998C71.4 64.7998 71.4 65.3998 71.8 65.7998C72 65.9998 72.3 66.0999 72.5 66.0999C72.8 66.0999 73 65.9998 73.2 65.7998C75.3 63.6998 76.5 60.8998 76.5 57.9998C76.5 55.2998 75.3 52.4999 73.2 50.3999Z" fill="#005CB9"/>
<path d="M76.6 45.6999C76.2 46.0999 76.2 46.6999 76.6 47.0999C79.6001 50.0999 81.2 53.9999 81.2 58.1999C81.2 62.3999 79.6001 66.2999 76.6 69.2999C76.2 69.6999 76.2 70.2999 76.6 70.6999C76.8 70.8999 77.1 70.9999 77.3 70.9999C77.6 70.9999 77.8 70.8999 78 70.6999C81.4 67.3999 83.3 62.8999 83.3 58.1999C83.3 53.4999 81.4 48.9999 78 45.6999C77.6 45.2999 77 45.2999 76.6 45.6999Z" fill="#005CB9"/>
</svg>
