<svg width="117" height="117" viewBox="0 0 117 117" fill="none" xmlns="http://www.w3.org/2000/svg">
<path d="M58.2 0C26.1 0 0 26.1 0 58.2C0 90.3 26.1 116.4 58.2 116.4C90.3 116.4 116.4 90.3 116.4 58.2C116.5 26.1 90.4 0 58.2 0ZM58.2 114.5C27.2 114.5 2 89.3 2 58.3C2 27.3 27.2 2.1 58.2 2.1C89.2 2.1 114.4 27.3 114.4 58.3C114.4 89.3 89.3 114.5 58.2 114.5Z" fill="#005CB9"/>
<path d="M61.2 36.6002C60.9 36.4002 60.4 36.5002 60.1 36.7002C60 36.8002 48.4 45.4002 41.5 50.1002H34.2C33.6 50.1002 33.2 50.6002 33.2 51.1002V65.4002C33.2 66.0002 33.7 66.4002 34.2 66.4002H41.5C44.9 68.7002 47.7999 70.9002 50.5999 73.0002C53.4999 75.2002 56.6 77.5002 60.1 79.8002C60.3 79.9002 60.5 80.0002 60.7 80.0002C60.9 80.0002 61 80.0002 61.2 79.9002C61.5 79.7002 61.7 79.4002 61.7 79.0002V37.5002C61.8 37.1002 61.5 36.8002 61.2 36.6002ZM59.7 77.0002C56.9 75.0002 54.3999 73.2002 51.8999 71.3002C48.9999 69.1002 45.8999 66.8002 42.3999 64.5002C42.1999 64.4002 41.9999 64.3002 41.7999 64.3002H35.2V52.1002H41.7999C41.9999 52.1002 42.1999 52.0002 42.3999 51.9002C47.7999 48.3002 56.2 42.1002 59.7 39.5002V77.0002Z" fill="#005CB9"/>
<path d="M86.9 49.3998C86.6 49.0998 86.1 49.0998 85.8 49.3998L78.9 56.2998L71.9999 49.3998C71.6999 49.0998 71.1999 49.0998 70.8999 49.3998C70.5999 49.6998 70.5999 50.1998 70.8999 50.4998L77.8 57.3998L70.8 64.3998C70.5 64.6998 70.5 65.1998 70.8 65.4998C71 65.6998 71.1999 65.6998 71.3999 65.6998C71.5999 65.6998 71.7999 65.5998 71.9999 65.4998L78.9 58.5998L85.8 65.4998C86 65.6998 86.2 65.6998 86.4 65.6998C86.6 65.6998 86.7999 65.5998 86.9999 65.4998C87.2999 65.1998 87.2999 64.6998 86.9999 64.3998L80.1 57.4998L86.9999 50.5998C87.1999 50.2998 87.2 49.6998 86.9 49.3998Z" fill="#005CB9"/>
</svg>
